<svg id="visual" viewBox="0 0 2000 600" width="2000" height="600" xmlns="http://www.w3.org/2000/svg" xmlns:xlink="http://www.w3.org/1999/xlink" version="1.1"><path d="M0 381L154 359L308 385L462 316L615 379L769 362L923 374L1077 342L1231 352L1385 395L1538 360L1692 325L1846 387L2000 382L2000 601L1846 601L1692 601L1538 601L1385 601L1231 601L1077 601L923 601L769 601L615 601L462 601L308 601L154 601L0 601Z" fill="#f5730a"></path><path d="M0 382L154 373L308 349L462 373L615 371L769 401L923 372L1077 403L1231 412L1385 383L1538 403L1692 420L1846 369L2000 398L2000 601L1846 601L1692 601L1538 601L1385 601L1231 601L1077 601L923 601L769 601L615 601L462 601L308 601L154 601L0 601Z" fill="#e3630a"></path><path d="M0 427L154 384L308 418L462 394L615 431L769 443L923 391L1077 409L1231 397L1385 425L1538 424L1692 412L1846 413L2000 404L2000 601L1846 601L1692 601L1538 601L1385 601L1231 601L1077 601L923 601L769 601L615 601L462 601L308 601L154 601L0 601Z" fill="#d15308"></path><path d="M0 479L154 433L308 434L462 441L615 447L769 424L923 473L1077 434L1231 471L1385 441L1538 439L1692 453L1846 425L2000 468L2000 601L1846 601L1692 601L1538 601L1385 601L1231 601L1077 601L923 601L769 601L615 601L462 601L308 601L154 601L0 601Z" fill="#be4407"></path><path d="M0 503L154 495L308 496L462 485L615 495L769 500L923 470L1077 478L1231 492L1385 498L1538 495L1692 477L1846 486L2000 493L2000 601L1846 601L1692 601L1538 601L1385 601L1231 601L1077 601L923 601L769 601L615 601L462 601L308 601L154 601L0 601Z" fill="#ac3505"></path><path d="M0 500L154 515L308 515L462 533L615 506L769 515L923 515L1077 515L1231 521L1385 501L1538 538L1692 540L1846 511L2000 529L2000 601L1846 601L1692 601L1538 601L1385 601L1231 601L1077 601L923 601L769 601L615 601L462 601L308 601L154 601L0 601Z" fill="#992503"></path><path d="M0 561L154 545L308 547L462 547L615 571L769 536L923 567L1077 543L1231 545L1385 545L1538 548L1692 552L1846 571L2000 571L2000 601L1846 601L1692 601L1538 601L1385 601L1231 601L1077 601L923 601L769 601L615 601L462 601L308 601L154 601L0 601Z" fill="#871400"></path></svg>