<svg id="visual" viewBox="0 0 960 540" width="960" height="540" xmlns="http://www.w3.org/2000/svg" xmlns:xlink="http://www.w3.org/1999/xlink" version="1.1"><path d="M0 319L80 367L160 356L240 319L320 404L400 391L480 397L560 379L640 342L720 388L800 336L880 358L960 344L960 541L880 541L800 541L720 541L640 541L560 541L480 541L400 541L320 541L240 541L160 541L80 541L0 541Z" fill="#f5730a"></path><path d="M0 430L80 412L160 360L240 361L320 384L400 376L480 422L560 382L640 388L720 417L800 389L880 393L960 407L960 541L880 541L800 541L720 541L640 541L560 541L480 541L400 541L320 541L240 541L160 541L80 541L0 541Z" fill="#da5b09"></path><path d="M0 395L80 425L160 428L240 432L320 446L400 418L480 424L560 459L640 448L720 405L800 430L880 403L960 425L960 541L880 541L800 541L720 541L640 541L560 541L480 541L400 541L320 541L240 541L160 541L80 541L0 541Z" fill="#be4407"></path><path d="M0 482L80 476L160 455L240 487L320 445L400 433L480 480L560 467L640 452L720 439L800 463L880 468L960 445L960 541L880 541L800 541L720 541L640 541L560 541L480 541L400 541L320 541L240 541L160 541L80 541L0 541Z" fill="#a32d04"></path><path d="M0 492L80 508L160 490L240 481L320 496L400 511L480 486L560 472L640 503L720 494L800 514L880 501L960 492L960 541L880 541L800 541L720 541L640 541L560 541L480 541L400 541L320 541L240 541L160 541L80 541L0 541Z" fill="#871400"></path></svg>