<svg id="visual" viewBox="0 0 900 600" width="900" height="600" xmlns="http://www.w3.org/2000/svg" xmlns:xlink="http://www.w3.org/1999/xlink" version="1.1"><path d="M0 349L90 286L180 337L270 368L360 372L450 370L540 286L630 371L720 371L810 297L900 321L900 601L810 601L720 601L630 601L540 601L450 601L360 601L270 601L180 601L90 601L0 601Z" fill="#f5730a"></path><path d="M0 399L90 371L180 332L270 397L360 413L450 348L540 348L630 361L720 399L810 402L900 410L900 601L810 601L720 601L630 601L540 601L450 601L360 601L270 601L180 601L90 601L0 601Z" fill="#df5f09"></path><path d="M0 439L90 434L180 453L270 406L360 415L450 385L540 425L630 453L720 386L810 394L900 408L900 601L810 601L720 601L630 601L540 601L450 601L360 601L270 601L180 601L90 601L0 601Z" fill="#c94c08"></path><path d="M0 446L90 467L180 457L270 444L360 451L450 485L540 455L630 490L720 477L810 488L900 489L900 601L810 601L720 601L630 601L540 601L450 601L360 601L270 601L180 601L90 601L0 601Z" fill="#b33806"></path><path d="M0 527L90 476L180 503L270 524L360 525L450 514L540 484L630 528L720 492L810 508L900 526L900 601L810 601L720 601L630 601L540 601L450 601L360 601L270 601L180 601L90 601L0 601Z" fill="#9c2504"></path><path d="M0 553L90 528L180 523L270 562L360 547L450 558L540 525L630 552L720 569L810 566L900 546L900 601L810 601L720 601L630 601L540 601L450 601L360 601L270 601L180 601L90 601L0 601Z" fill="#850e00"></path></svg>