<svg id="visual" viewBox="0 0 900 600" width="900" height="600" xmlns="http://www.w3.org/2000/svg" xmlns:xlink="http://www.w3.org/1999/xlink" version="1.1"><path d="M0 348L90 364L180 353L270 292L360 352L450 337L540 329L630 360L720 339L810 351L900 354L900 601L810 601L720 601L630 601L540 601L450 601L360 601L270 601L180 601L90 601L0 601Z" fill="#f5730a"></path><path d="M0 399L90 401L180 388L270 371L360 400L450 384L540 354L630 334L720 352L810 341L900 336L900 601L810 601L720 601L630 601L540 601L450 601L360 601L270 601L180 601L90 601L0 601Z" fill="#df5f09"></path><path d="M0 386L90 419L180 400L270 419L360 392L450 382L540 450L630 389L720 430L810 400L900 427L900 601L810 601L720 601L630 601L540 601L450 601L360 601L270 601L180 601L90 601L0 601Z" fill="#c94c08"></path><path d="M0 443L90 430L180 472L270 471L360 489L450 455L540 436L630 482L720 471L810 447L900 441L900 601L810 601L720 601L630 601L540 601L450 601L360 601L270 601L180 601L90 601L0 601Z" fill="#b33806"></path><path d="M0 485L90 504L180 518L270 474L360 476L450 494L540 479L630 518L720 487L810 517L900 493L900 601L810 601L720 601L630 601L540 601L450 601L360 601L270 601L180 601L90 601L0 601Z" fill="#9c2504"></path><path d="M0 550L90 561L180 541L270 530L360 522L450 560L540 568L630 532L720 547L810 549L900 522L900 601L810 601L720 601L630 601L540 601L450 601L360 601L270 601L180 601L90 601L0 601Z" fill="#850e00"></path></svg>