<svg id="visual" viewBox="0 0 2000 600" width="2000" height="600" xmlns="http://www.w3.org/2000/svg" xmlns:xlink="http://www.w3.org/1999/xlink" version="1.1"><path d="M0 369L154 333L308 394L462 313L615 326L769 361L923 371L1077 377L1231 389L1385 342L1538 364L1692 336L1846 383L2000 327L2000 601L1846 601L1692 601L1538 601L1385 601L1231 601L1077 601L923 601L769 601L615 601L462 601L308 601L154 601L0 601Z" fill="#f5730a"></path><path d="M0 384L154 354L308 394L462 408L615 345L769 415L923 364L1077 418L1231 407L1385 418L1538 374L1692 372L1846 363L2000 372L2000 601L1846 601L1692 601L1538 601L1385 601L1231 601L1077 601L923 601L769 601L615 601L462 601L308 601L154 601L0 601Z" fill="#e3630a"></path><path d="M0 422L154 449L308 439L462 420L615 413L769 390L923 408L1077 384L1231 423L1385 455L1538 447L1692 404L1846 434L2000 414L2000 601L1846 601L1692 601L1538 601L1385 601L1231 601L1077 601L923 601L769 601L615 601L462 601L308 601L154 601L0 601Z" fill="#d15308"></path><path d="M0 448L154 462L308 482L462 439L615 445L769 451L923 448L1077 451L1231 481L1385 475L1538 440L1692 455L1846 462L2000 472L2000 601L1846 601L1692 601L1538 601L1385 601L1231 601L1077 601L923 601L769 601L615 601L462 601L308 601L154 601L0 601Z" fill="#be4407"></path><path d="M0 462L154 502L308 477L462 466L615 490L769 490L923 497L1077 471L1231 465L1385 506L1538 504L1692 486L1846 502L2000 502L2000 601L1846 601L1692 601L1538 601L1385 601L1231 601L1077 601L923 601L769 601L615 601L462 601L308 601L154 601L0 601Z" fill="#ac3505"></path><path d="M0 521L154 508L308 543L462 523L615 512L769 512L923 516L1077 541L1231 524L1385 541L1538 513L1692 522L1846 503L2000 539L2000 601L1846 601L1692 601L1538 601L1385 601L1231 601L1077 601L923 601L769 601L615 601L462 601L308 601L154 601L0 601Z" fill="#992503"></path><path d="M0 543L154 544L308 569L462 571L615 555L769 544L923 552L1077 554L1231 538L1385 546L1538 555L1692 553L1846 568L2000 536L2000 601L1846 601L1692 601L1538 601L1385 601L1231 601L1077 601L923 601L769 601L615 601L462 601L308 601L154 601L0 601Z" fill="#871400"></path></svg>